<mxfile host="app.diagrams.net" modified="2023-12-26T20:30:17.795Z" agent="Mozilla/5.0 (Windows NT 10.0; Win64; x64) AppleWebKit/537.36 (KHTML, like Gecko) Chrome/120.0.0.0 Safari/537.36" etag="i3ywVrvFmehtrPGVVDIO" version="22.1.11" type="device">
  <diagram name="Page-1" id="E64fL2SvyC9NRViE9VXA">
    <mxGraphModel dx="6950" dy="2825" grid="1" gridSize="10" guides="1" tooltips="1" connect="1" arrows="1" fold="1" page="1" pageScale="1" pageWidth="850" pageHeight="1100" math="0" shadow="0">
      <root>
        <mxCell id="0" />
        <mxCell id="1" parent="0" />
        <mxCell id="toCFi2T_oHbZBWo1tkQk-45" value="" style="ellipse;html=1;shape=startState;fillColor=#000000;strokeColor=#ff0000;strokeWidth=4;" vertex="1" parent="1">
          <mxGeometry x="-1570" y="30" width="30" height="30" as="geometry" />
        </mxCell>
        <mxCell id="toCFi2T_oHbZBWo1tkQk-46" value="" style="edgeStyle=orthogonalEdgeStyle;html=1;verticalAlign=bottom;endArrow=open;endSize=8;strokeColor=#ff0000;rounded=0;strokeWidth=5;exitX=0.5;exitY=1;exitDx=0;exitDy=0;" edge="1" parent="1" source="toCFi2T_oHbZBWo1tkQk-45" target="toCFi2T_oHbZBWo1tkQk-47">
          <mxGeometry relative="1" as="geometry">
            <mxPoint x="-1537" y="140" as="targetPoint" />
            <mxPoint x="-1537" y="80" as="sourcePoint" />
          </mxGeometry>
        </mxCell>
        <mxCell id="toCFi2T_oHbZBWo1tkQk-47" value="&lt;span style=&quot;font-size: 24px;&quot;&gt;&lt;b&gt;write review&lt;/b&gt;&lt;/span&gt;" style="rounded=1;whiteSpace=wrap;html=1;strokeWidth=4;" vertex="1" parent="1">
          <mxGeometry x="-1660" y="140" width="210" height="60" as="geometry" />
        </mxCell>
        <mxCell id="toCFi2T_oHbZBWo1tkQk-49" value="&lt;b style=&quot;&quot;&gt;&lt;font style=&quot;font-size: 26px;&quot;&gt;Review&lt;/font&gt;&lt;/b&gt;" style="html=1;whiteSpace=wrap;strokeWidth=5;" vertex="1" parent="1">
          <mxGeometry x="-1610" y="326.9999999999999" width="110" height="50" as="geometry" />
        </mxCell>
        <mxCell id="toCFi2T_oHbZBWo1tkQk-52" value="" style="endArrow=open;endFill=1;endSize=12;html=1;rounded=0;exitX=0.5;exitY=1;exitDx=0;exitDy=0;strokeWidth=5;" edge="1" parent="1" source="toCFi2T_oHbZBWo1tkQk-47" target="toCFi2T_oHbZBWo1tkQk-49">
          <mxGeometry width="160" relative="1" as="geometry">
            <mxPoint x="-1870" y="330" as="sourcePoint" />
            <mxPoint x="-1562.5" y="256" as="targetPoint" />
            <Array as="points" />
          </mxGeometry>
        </mxCell>
        <mxCell id="toCFi2T_oHbZBWo1tkQk-56" value="&lt;b style=&quot;border-color: var(--border-color); background-color: rgb(251, 251, 251); font-size: 24px;&quot;&gt;[write review]&lt;/b&gt;" style="edgeLabel;html=1;align=center;verticalAlign=middle;resizable=0;points=[];" vertex="1" connectable="0" parent="toCFi2T_oHbZBWo1tkQk-52">
          <mxGeometry x="-0.2711" relative="1" as="geometry">
            <mxPoint as="offset" />
          </mxGeometry>
        </mxCell>
        <mxCell id="toCFi2T_oHbZBWo1tkQk-55" value="" style="edgeStyle=orthogonalEdgeStyle;html=1;verticalAlign=bottom;endArrow=open;endSize=8;strokeColor=#ff0000;rounded=0;strokeWidth=5;entryX=0.5;entryY=0;entryDx=0;entryDy=0;" edge="1" parent="1" target="toCFi2T_oHbZBWo1tkQk-51">
          <mxGeometry relative="1" as="geometry">
            <mxPoint x="-1555" y="435.9999999999998" as="targetPoint" />
            <mxPoint x="-1555" y="379.9999999999999" as="sourcePoint" />
            <Array as="points" />
          </mxGeometry>
        </mxCell>
        <mxCell id="toCFi2T_oHbZBWo1tkQk-51" value="" style="ellipse;html=1;shape=endState;fillColor=#000000;strokeColor=#ff0000;strokeWidth=2;" vertex="1" parent="1">
          <mxGeometry x="-1570" y="482.9999999999999" width="30" height="30" as="geometry" />
        </mxCell>
        <mxCell id="toCFi2T_oHbZBWo1tkQk-57" value="" style="ellipse;html=1;shape=startState;fillColor=#000000;strokeColor=#ff0000;strokeWidth=4;" vertex="1" parent="1">
          <mxGeometry x="-1275" y="40" width="30" height="30" as="geometry" />
        </mxCell>
        <mxCell id="toCFi2T_oHbZBWo1tkQk-58" value="" style="edgeStyle=orthogonalEdgeStyle;html=1;verticalAlign=bottom;endArrow=open;endSize=8;strokeColor=#ff0000;rounded=0;strokeWidth=5;exitX=0.5;exitY=1;exitDx=0;exitDy=0;" edge="1" parent="1" source="toCFi2T_oHbZBWo1tkQk-57" target="toCFi2T_oHbZBWo1tkQk-59">
          <mxGeometry relative="1" as="geometry">
            <mxPoint x="-1242" y="150" as="targetPoint" />
            <mxPoint x="-1242" y="90" as="sourcePoint" />
          </mxGeometry>
        </mxCell>
        <mxCell id="toCFi2T_oHbZBWo1tkQk-59" value="&lt;span style=&quot;font-size: 24px;&quot;&gt;&lt;b&gt;send Report&lt;/b&gt;&lt;/span&gt;" style="rounded=1;whiteSpace=wrap;html=1;strokeWidth=4;" vertex="1" parent="1">
          <mxGeometry x="-1365" y="150" width="210" height="60" as="geometry" />
        </mxCell>
        <mxCell id="toCFi2T_oHbZBWo1tkQk-60" value="&lt;span style=&quot;font-size: 26px;&quot;&gt;&lt;b&gt;user&lt;/b&gt;&lt;/span&gt;" style="html=1;whiteSpace=wrap;strokeWidth=5;" vertex="1" parent="1">
          <mxGeometry x="-1315" y="467.9999999999999" width="110" height="50" as="geometry" />
        </mxCell>
        <mxCell id="toCFi2T_oHbZBWo1tkQk-61" value="" style="endArrow=open;endFill=1;endSize=12;html=1;rounded=0;exitX=0.5;exitY=1;exitDx=0;exitDy=0;strokeWidth=5;entryX=0.193;entryY=0.202;entryDx=0;entryDy=0;entryPerimeter=0;" edge="1" parent="1" source="toCFi2T_oHbZBWo1tkQk-59" target="toCFi2T_oHbZBWo1tkQk-66">
          <mxGeometry width="160" relative="1" as="geometry">
            <mxPoint x="-1575" y="340" as="sourcePoint" />
            <mxPoint x="-1260" y="370" as="targetPoint" />
            <Array as="points" />
          </mxGeometry>
        </mxCell>
        <mxCell id="toCFi2T_oHbZBWo1tkQk-62" value="&lt;b style=&quot;border-color: var(--border-color); background-color: rgb(251, 251, 251); font-size: 24px;&quot;&gt;[&lt;b style=&quot;border-color: var(--border-color);&quot;&gt;send Report&lt;/b&gt;]&lt;/b&gt;" style="edgeLabel;html=1;align=center;verticalAlign=middle;resizable=0;points=[];" vertex="1" connectable="0" parent="toCFi2T_oHbZBWo1tkQk-61">
          <mxGeometry x="-0.2711" relative="1" as="geometry">
            <mxPoint as="offset" />
          </mxGeometry>
        </mxCell>
        <mxCell id="toCFi2T_oHbZBWo1tkQk-63" value="" style="edgeStyle=orthogonalEdgeStyle;html=1;verticalAlign=bottom;endArrow=open;endSize=8;strokeColor=#ff0000;rounded=0;strokeWidth=5;entryX=0.5;entryY=0;entryDx=0;entryDy=0;" edge="1" parent="1" target="toCFi2T_oHbZBWo1tkQk-64">
          <mxGeometry relative="1" as="geometry">
            <mxPoint x="-1260" y="572.9999999999998" as="targetPoint" />
            <mxPoint x="-1260" y="516.9999999999999" as="sourcePoint" />
            <Array as="points" />
          </mxGeometry>
        </mxCell>
        <mxCell id="toCFi2T_oHbZBWo1tkQk-64" value="" style="ellipse;html=1;shape=endState;fillColor=#000000;strokeColor=#ff0000;strokeWidth=2;" vertex="1" parent="1">
          <mxGeometry x="-1275" y="619.9999999999999" width="30" height="30" as="geometry" />
        </mxCell>
        <mxCell id="toCFi2T_oHbZBWo1tkQk-65" value="&lt;span style=&quot;font-size: 26px;&quot;&gt;&lt;b&gt;Report&lt;/b&gt;&lt;/span&gt;" style="html=1;whiteSpace=wrap;strokeWidth=5;" vertex="1" parent="1">
          <mxGeometry x="-1158" y="467.9999999999999" width="110" height="50" as="geometry" />
        </mxCell>
        <mxCell id="toCFi2T_oHbZBWo1tkQk-66" value="" style="shape=line;html=1;strokeWidth=6;strokeColor=#ff0000;" vertex="1" parent="1">
          <mxGeometry x="-1300" y="377" width="200" height="10" as="geometry" />
        </mxCell>
        <mxCell id="toCFi2T_oHbZBWo1tkQk-67" value="" style="edgeStyle=orthogonalEdgeStyle;html=1;verticalAlign=bottom;endArrow=open;endSize=8;strokeColor=#ff0000;rounded=0;entryX=0.388;entryY=0.023;entryDx=0;entryDy=0;entryPerimeter=0;exitX=0.142;exitY=0.593;exitDx=0;exitDy=0;exitPerimeter=0;strokeWidth=3;" edge="1" source="toCFi2T_oHbZBWo1tkQk-66" parent="1" target="toCFi2T_oHbZBWo1tkQk-60">
          <mxGeometry relative="1" as="geometry">
            <mxPoint x="-1272" y="457" as="targetPoint" />
            <mxPoint x="-1271.9999999999998" y="387" as="sourcePoint" />
          </mxGeometry>
        </mxCell>
        <mxCell id="toCFi2T_oHbZBWo1tkQk-68" value="" style="edgeStyle=orthogonalEdgeStyle;html=1;verticalAlign=bottom;endArrow=open;endSize=8;strokeColor=#ff0000;rounded=0;entryX=0.25;entryY=0;entryDx=0;entryDy=0;strokeWidth=3;" edge="1" parent="1" target="toCFi2T_oHbZBWo1tkQk-65">
          <mxGeometry relative="1" as="geometry">
            <mxPoint x="-1130" y="460" as="targetPoint" />
            <mxPoint x="-1130" y="390" as="sourcePoint" />
            <Array as="points">
              <mxPoint x="-1131" y="380" />
              <mxPoint x="-1130" y="380" />
              <mxPoint x="-1130" y="450" />
              <mxPoint x="-1132" y="450" />
            </Array>
          </mxGeometry>
        </mxCell>
        <mxCell id="toCFi2T_oHbZBWo1tkQk-69" value="" style="swimlane;childLayout=stackLayout;resizeParent=1;resizeParentMax=0;horizontal=1;startSize=0;horizontalStack=0;html=1;strokeWidth=6;" vertex="1" parent="1">
          <mxGeometry x="-1640" y="730" width="590" height="410" as="geometry" />
        </mxCell>
        <mxCell id="toCFi2T_oHbZBWo1tkQk-70" value="&lt;font style=&quot;font-size: 24px;&quot;&gt;customer&lt;/font&gt;" style="swimlane;startSize=30;horizontal=0;html=1;strokeWidth=5;" vertex="1" parent="toCFi2T_oHbZBWo1tkQk-69">
          <mxGeometry width="590" height="216" as="geometry" />
        </mxCell>
        <mxCell id="toCFi2T_oHbZBWo1tkQk-73" value="" style="ellipse;html=1;shape=startState;fillColor=#000000;strokeColor=#ff0000;strokeWidth=4;" vertex="1" parent="toCFi2T_oHbZBWo1tkQk-70">
          <mxGeometry x="60" y="13" width="30" height="30" as="geometry" />
        </mxCell>
        <mxCell id="toCFi2T_oHbZBWo1tkQk-74" value="" style="edgeStyle=orthogonalEdgeStyle;html=1;verticalAlign=bottom;endArrow=open;endSize=8;strokeColor=#ff0000;rounded=0;strokeWidth=5;exitX=1;exitY=0.5;exitDx=0;exitDy=0;" edge="1" parent="toCFi2T_oHbZBWo1tkQk-70" source="toCFi2T_oHbZBWo1tkQk-73" target="toCFi2T_oHbZBWo1tkQk-75">
          <mxGeometry relative="1" as="geometry">
            <mxPoint x="173" y="48" as="targetPoint" />
            <mxPoint x="173" y="-12" as="sourcePoint" />
          </mxGeometry>
        </mxCell>
        <mxCell id="toCFi2T_oHbZBWo1tkQk-75" value="&lt;b style=&quot;border-color: var(--border-color);&quot;&gt;&lt;font style=&quot;border-color: var(--border-color); font-size: 24px;&quot; face=&quot;Times New Roman&quot;&gt;Request&amp;nbsp;&lt;b style=&quot;border-color: var(--border-color); background-color: initial; font-family: Helvetica;&quot;&gt;&lt;font style=&quot;border-color: var(--border-color);&quot; face=&quot;Times New Roman&quot;&gt;Support&amp;nbsp;&lt;/font&gt;&lt;/b&gt;&lt;/font&gt;&lt;/b&gt;" style="rounded=1;whiteSpace=wrap;html=1;strokeWidth=4;" vertex="1" parent="toCFi2T_oHbZBWo1tkQk-70">
          <mxGeometry x="190" y="8" width="210" height="40" as="geometry" />
        </mxCell>
        <mxCell id="toCFi2T_oHbZBWo1tkQk-76" value="&lt;span style=&quot;font-size: 26px;&quot;&gt;&lt;b&gt;:announcement&lt;/b&gt;&lt;/span&gt;" style="html=1;whiteSpace=wrap;strokeWidth=5;" vertex="1" parent="toCFi2T_oHbZBWo1tkQk-70">
          <mxGeometry x="240.75" y="166" width="229.25" height="50" as="geometry" />
        </mxCell>
        <mxCell id="toCFi2T_oHbZBWo1tkQk-77" value="" style="endArrow=open;endFill=1;endSize=12;html=1;rounded=0;exitX=0.5;exitY=1;exitDx=0;exitDy=0;strokeWidth=5;entryX=0.25;entryY=0;entryDx=0;entryDy=0;" edge="1" parent="toCFi2T_oHbZBWo1tkQk-70" source="toCFi2T_oHbZBWo1tkQk-75" target="toCFi2T_oHbZBWo1tkQk-76">
          <mxGeometry width="160" relative="1" as="geometry">
            <mxPoint x="-160" y="136" as="sourcePoint" />
            <mxPoint x="147.5" y="62" as="targetPoint" />
            <Array as="points" />
          </mxGeometry>
        </mxCell>
        <mxCell id="toCFi2T_oHbZBWo1tkQk-78" value="&lt;b style=&quot;border-color: var(--border-color); font-size: 12px; background-color: rgb(251, 251, 251);&quot;&gt;&lt;font style=&quot;border-color: var(--border-color); font-size: 18px;&quot; face=&quot;Times New Roman&quot;&gt;[Request&amp;nbsp;&lt;b style=&quot;border-color: var(--border-color); background-color: initial; font-family: Helvetica; font-size: 12px;&quot;&gt;&lt;font style=&quot;border-color: var(--border-color); font-size: 18px;&quot; face=&quot;Times New Roman&quot;&gt;Support ]&lt;/font&gt;&lt;/b&gt;&lt;/font&gt;&lt;/b&gt;" style="edgeLabel;html=1;align=center;verticalAlign=middle;resizable=0;points=[];" vertex="1" connectable="0" parent="toCFi2T_oHbZBWo1tkQk-77">
          <mxGeometry x="-0.2711" relative="1" as="geometry">
            <mxPoint as="offset" />
          </mxGeometry>
        </mxCell>
        <mxCell id="toCFi2T_oHbZBWo1tkQk-72" value="&lt;font style=&quot;font-size: 24px;&quot;&gt;Admin&lt;/font&gt;" style="swimlane;startSize=30;horizontal=0;html=1;strokeWidth=6;" vertex="1" parent="toCFi2T_oHbZBWo1tkQk-69">
          <mxGeometry y="216" width="590" height="194" as="geometry" />
        </mxCell>
        <mxCell id="toCFi2T_oHbZBWo1tkQk-79" value="" style="edgeStyle=orthogonalEdgeStyle;html=1;verticalAlign=bottom;endArrow=open;endSize=8;strokeColor=#ff0000;rounded=0;strokeWidth=5;exitX=1;exitY=0.75;exitDx=0;exitDy=0;entryX=0;entryY=0.5;entryDx=0;entryDy=0;" edge="1" parent="toCFi2T_oHbZBWo1tkQk-72" target="toCFi2T_oHbZBWo1tkQk-80">
          <mxGeometry relative="1" as="geometry">
            <mxPoint x="490" y="84" as="targetPoint" />
            <mxPoint x="355" y="123" as="sourcePoint" />
            <Array as="points">
              <mxPoint x="355" y="125" />
              <mxPoint x="490" y="125" />
              <mxPoint x="490" y="120" />
            </Array>
          </mxGeometry>
        </mxCell>
        <mxCell id="toCFi2T_oHbZBWo1tkQk-80" value="" style="ellipse;html=1;shape=endState;fillColor=#000000;strokeColor=#ff0000;strokeWidth=2;" vertex="1" parent="toCFi2T_oHbZBWo1tkQk-72">
          <mxGeometry x="520" y="105" width="30" height="30" as="geometry" />
        </mxCell>
        <mxCell id="toCFi2T_oHbZBWo1tkQk-83" value="" style="endArrow=open;endFill=1;endSize=12;html=1;rounded=0;exitX=0.5;exitY=0;exitDx=0;exitDy=0;strokeWidth=3;entryX=0.697;entryY=-0.004;entryDx=0;entryDy=0;entryPerimeter=0;" edge="1" parent="toCFi2T_oHbZBWo1tkQk-72" source="toCFi2T_oHbZBWo1tkQk-72" target="toCFi2T_oHbZBWo1tkQk-84">
          <mxGeometry width="160" relative="1" as="geometry">
            <mxPoint x="200" y="27" as="sourcePoint" />
            <mxPoint x="295" y="37" as="targetPoint" />
          </mxGeometry>
        </mxCell>
        <mxCell id="toCFi2T_oHbZBWo1tkQk-85" value="&lt;b&gt;&lt;font style=&quot;font-size: 18px;&quot;&gt;[send announcement]&lt;/font&gt;&lt;/b&gt;" style="edgeLabel;html=1;align=center;verticalAlign=middle;resizable=0;points=[];" vertex="1" connectable="0" parent="toCFi2T_oHbZBWo1tkQk-83">
          <mxGeometry x="-0.0444" y="4" relative="1" as="geometry">
            <mxPoint as="offset" />
          </mxGeometry>
        </mxCell>
        <mxCell id="toCFi2T_oHbZBWo1tkQk-84" value="&lt;b style=&quot;border-color: var(--border-color); font-family: &amp;quot;Times New Roman&amp;quot;;&quot;&gt;&lt;font style=&quot;font-size: 24px;&quot;&gt;respond to support request&amp;nbsp;&lt;/font&gt;&lt;/b&gt;" style="rounded=1;whiteSpace=wrap;html=1;strokeWidth=5;" vertex="1" parent="toCFi2T_oHbZBWo1tkQk-72">
          <mxGeometry x="80" y="90" width="310" height="60" as="geometry" />
        </mxCell>
        <mxCell id="toCFi2T_oHbZBWo1tkQk-89" value="" style="edgeStyle=orthogonalEdgeStyle;rounded=0;orthogonalLoop=1;jettySize=auto;html=1;" edge="1" parent="1" source="toCFi2T_oHbZBWo1tkQk-86" target="toCFi2T_oHbZBWo1tkQk-87">
          <mxGeometry relative="1" as="geometry" />
        </mxCell>
        <mxCell id="toCFi2T_oHbZBWo1tkQk-86" value="&lt;b style=&quot;border-color: var(--border-color); font-family: &amp;quot;Times New Roman&amp;quot;;&quot;&gt;&lt;font style=&quot;font-size: 24px;&quot;&gt;Adjust inventory&lt;/font&gt;&lt;/b&gt;" style="rounded=1;whiteSpace=wrap;html=1;strokeWidth=5;" vertex="1" parent="1">
          <mxGeometry x="-66.5" y="163" width="265" height="60" as="geometry" />
        </mxCell>
        <mxCell id="toCFi2T_oHbZBWo1tkQk-87" value="" style="ellipse;html=1;shape=startState;fillColor=#000000;strokeColor=#ff0000;strokeWidth=5;" vertex="1" parent="1">
          <mxGeometry x="40.5" y="33" width="50" height="50" as="geometry" />
        </mxCell>
        <mxCell id="toCFi2T_oHbZBWo1tkQk-88" value="" style="edgeStyle=orthogonalEdgeStyle;html=1;verticalAlign=bottom;endArrow=open;endSize=8;strokeColor=#ff0000;rounded=0;strokeWidth=5;entryX=0.5;entryY=0;entryDx=0;entryDy=0;" edge="1" source="toCFi2T_oHbZBWo1tkQk-87" parent="1" target="toCFi2T_oHbZBWo1tkQk-86">
          <mxGeometry relative="1" as="geometry">
            <mxPoint x="-6.5" y="153" as="targetPoint" />
          </mxGeometry>
        </mxCell>
        <mxCell id="toCFi2T_oHbZBWo1tkQk-90" value="" style="shape=line;html=1;strokeWidth=6;strokeColor=#ff0000;" vertex="1" parent="1">
          <mxGeometry x="-420.5" y="280" width="963" height="37" as="geometry" />
        </mxCell>
        <mxCell id="toCFi2T_oHbZBWo1tkQk-91" value="" style="edgeStyle=orthogonalEdgeStyle;html=1;verticalAlign=bottom;endArrow=open;endSize=8;strokeColor=#ff0000;rounded=0;strokeWidth=6;exitX=0.505;exitY=0.578;exitDx=0;exitDy=0;exitPerimeter=0;" edge="1" parent="1" target="toCFi2T_oHbZBWo1tkQk-102">
          <mxGeometry relative="1" as="geometry">
            <mxPoint x="218.57692307692287" y="421" as="targetPoint" />
            <mxPoint x="222.8149999999996" y="299.38599999999997" as="sourcePoint" />
          </mxGeometry>
        </mxCell>
        <mxCell id="toCFi2T_oHbZBWo1tkQk-92" value="" style="endArrow=open;endFill=1;endSize=12;html=1;rounded=0;exitX=0.5;exitY=1;exitDx=0;exitDy=0;entryX=0.505;entryY=0.541;entryDx=0;entryDy=0;entryPerimeter=0;strokeWidth=4;" edge="1" parent="1" source="toCFi2T_oHbZBWo1tkQk-86" target="toCFi2T_oHbZBWo1tkQk-90">
          <mxGeometry width="160" relative="1" as="geometry">
            <mxPoint x="-477.5" y="410" as="sourcePoint" />
            <mxPoint x="-317.5" y="410" as="targetPoint" />
          </mxGeometry>
        </mxCell>
        <mxCell id="toCFi2T_oHbZBWo1tkQk-93" value="" style="edgeStyle=orthogonalEdgeStyle;html=1;verticalAlign=bottom;endArrow=open;endSize=8;strokeColor=#ff0000;rounded=0;strokeWidth=6;exitX=0.617;exitY=0.444;exitDx=0;exitDy=0;exitPerimeter=0;entryX=0.5;entryY=0;entryDx=0;entryDy=0;" edge="1" parent="1" target="toCFi2T_oHbZBWo1tkQk-101">
          <mxGeometry relative="1" as="geometry">
            <mxPoint x="20.5" y="390" as="targetPoint" />
            <mxPoint x="20.55099999999993" y="296.428" as="sourcePoint" />
          </mxGeometry>
        </mxCell>
        <mxCell id="toCFi2T_oHbZBWo1tkQk-95" value="" style="edgeStyle=orthogonalEdgeStyle;html=1;verticalAlign=bottom;endArrow=open;endSize=8;strokeColor=#ff0000;rounded=0;strokeWidth=6;entryX=0.75;entryY=0;entryDx=0;entryDy=0;" edge="1" parent="1" target="toCFi2T_oHbZBWo1tkQk-97">
          <mxGeometry relative="1" as="geometry">
            <mxPoint x="-437.5" y="430" as="targetPoint" />
            <mxPoint x="-337.5" y="300" as="sourcePoint" />
            <Array as="points">
              <mxPoint x="-340.5" y="300" />
            </Array>
          </mxGeometry>
        </mxCell>
        <mxCell id="toCFi2T_oHbZBWo1tkQk-96" value="" style="edgeStyle=orthogonalEdgeStyle;html=1;verticalAlign=bottom;endArrow=open;endSize=8;strokeColor=#ff0000;rounded=0;strokeWidth=6;exitX=0.617;exitY=0.444;exitDx=0;exitDy=0;exitPerimeter=0;" edge="1" parent="1">
          <mxGeometry relative="1" as="geometry">
            <mxPoint x="712.5" y="434" as="targetPoint" />
            <mxPoint x="496.55099999999993" y="298.428" as="sourcePoint" />
          </mxGeometry>
        </mxCell>
        <mxCell id="toCFi2T_oHbZBWo1tkQk-97" value="&lt;b style=&quot;border-color: var(--border-color); font-family: &amp;quot;Times New Roman&amp;quot;;&quot;&gt;&lt;font style=&quot;font-size: 36px;&quot;&gt;edit catalog&amp;nbsp;&lt;/font&gt;&lt;/b&gt;" style="rounded=1;whiteSpace=wrap;html=1;strokeWidth=6;" vertex="1" parent="1">
          <mxGeometry x="-497.5" y="431" width="210" height="60" as="geometry" />
        </mxCell>
        <mxCell id="toCFi2T_oHbZBWo1tkQk-98" value="&lt;b style=&quot;border-color: var(--border-color); font-family: &amp;quot;Times New Roman&amp;quot;;&quot;&gt;&lt;font style=&quot;font-size: 36px;&quot;&gt;delete book&amp;nbsp;&lt;/font&gt;&lt;/b&gt;" style="rounded=1;whiteSpace=wrap;html=1;direction=east;strokeWidth=5;" vertex="1" parent="1">
          <mxGeometry x="-277.5" y="518" width="240" height="60" as="geometry" />
        </mxCell>
        <mxCell id="toCFi2T_oHbZBWo1tkQk-100" value="" style="edgeStyle=orthogonalEdgeStyle;html=1;verticalAlign=bottom;endArrow=open;endSize=8;strokeColor=#ff0000;rounded=0;strokeWidth=6;exitX=0.617;exitY=0.444;exitDx=0;exitDy=0;exitPerimeter=0;entryX=0.404;entryY=0.012;entryDx=0;entryDy=0;entryPerimeter=0;" edge="1" parent="1">
          <mxGeometry relative="1" as="geometry">
            <mxPoint x="-229.01999999999998" y="516.72" as="targetPoint" />
            <mxPoint x="-152.44900000000007" y="299.428" as="sourcePoint" />
          </mxGeometry>
        </mxCell>
        <mxCell id="toCFi2T_oHbZBWo1tkQk-101" value="&lt;b style=&quot;border-color: var(--border-color); font-family: &amp;quot;Times New Roman&amp;quot;;&quot;&gt;&lt;font style=&quot;font-size: 36px;&quot;&gt;modify new book&amp;nbsp;&lt;/font&gt;&lt;/b&gt;" style="rounded=1;whiteSpace=wrap;html=1;strokeWidth=6;" vertex="1" parent="1">
          <mxGeometry x="-145.5" y="415" width="330" height="60" as="geometry" />
        </mxCell>
        <mxCell id="toCFi2T_oHbZBWo1tkQk-102" value="&lt;b style=&quot;border-color: var(--border-color); font-family: &amp;quot;Times New Roman&amp;quot;;&quot;&gt;&lt;font style=&quot;font-size: 36px;&quot;&gt;edit inventory quantity&lt;/font&gt;&lt;/b&gt;" style="rounded=1;whiteSpace=wrap;html=1;strokeWidth=6;" vertex="1" parent="1">
          <mxGeometry x="242.5" y="436" width="370" height="60" as="geometry" />
        </mxCell>
        <mxCell id="toCFi2T_oHbZBWo1tkQk-103" value="&lt;font style=&quot;font-size: 36px;&quot;&gt;&lt;b style=&quot;border-color: var(--border-color); color: rgb(0, 0, 0); font-family: &amp;quot;Times New Roman&amp;quot;; font-style: normal; font-variant-ligatures: normal; font-variant-caps: normal; letter-spacing: normal; orphans: 2; text-align: center; text-indent: 0px; text-transform: none; widows: 2; word-spacing: 0px; -webkit-text-stroke-width: 0px; background-color: rgb(251, 251, 251); text-decoration-thickness: initial; text-decoration-style: initial; text-decoration-color: initial;&quot;&gt;modify new catalog&lt;/b&gt;&lt;br&gt;&lt;/font&gt;" style="rounded=1;whiteSpace=wrap;html=1;strokeWidth=5;arcSize=34;" vertex="1" parent="1">
          <mxGeometry x="662.5" y="436" width="350" height="60" as="geometry" />
        </mxCell>
        <mxCell id="toCFi2T_oHbZBWo1tkQk-104" value="&lt;b&gt;&lt;font style=&quot;font-size: 24px;&quot;&gt;:catalog&lt;/font&gt;&lt;/b&gt;" style="html=1;whiteSpace=wrap;strokeWidth=6;" vertex="1" parent="1">
          <mxGeometry x="-760" y="436" width="110" height="50" as="geometry" />
        </mxCell>
        <mxCell id="toCFi2T_oHbZBWo1tkQk-105" value="" style="endArrow=open;endFill=1;endSize=12;html=1;rounded=0;exitX=0;exitY=0.5;exitDx=0;exitDy=0;entryX=1;entryY=0.5;entryDx=0;entryDy=0;strokeWidth=5;" edge="1" parent="1" source="toCFi2T_oHbZBWo1tkQk-97" target="toCFi2T_oHbZBWo1tkQk-104">
          <mxGeometry width="160" relative="1" as="geometry">
            <mxPoint x="-460" y="620" as="sourcePoint" />
            <mxPoint x="-300" y="620" as="targetPoint" />
          </mxGeometry>
        </mxCell>
        <mxCell id="toCFi2T_oHbZBWo1tkQk-106" value="" style="shape=line;html=1;strokeWidth=12;strokeColor=#ff0000;" vertex="1" parent="1">
          <mxGeometry x="-540" y="881" width="1540" height="10" as="geometry" />
        </mxCell>
        <mxCell id="toCFi2T_oHbZBWo1tkQk-107" value="" style="edgeStyle=orthogonalEdgeStyle;html=1;verticalAlign=bottom;endArrow=open;endSize=8;strokeColor=#ff0000;rounded=0;strokeWidth=7;exitX=0.519;exitY=0.446;exitDx=0;exitDy=0;exitPerimeter=0;" edge="1" source="toCFi2T_oHbZBWo1tkQk-106" parent="1" target="toCFi2T_oHbZBWo1tkQk-116">
          <mxGeometry relative="1" as="geometry">
            <mxPoint x="230" y="980" as="targetPoint" />
          </mxGeometry>
        </mxCell>
        <mxCell id="toCFi2T_oHbZBWo1tkQk-108" value="&lt;b&gt;&lt;font style=&quot;font-size: 24px;&quot;&gt;:Book&lt;/font&gt;&lt;/b&gt;" style="html=1;whiteSpace=wrap;strokeWidth=6;" vertex="1" parent="1">
          <mxGeometry x="-202" y="652" width="110" height="50" as="geometry" />
        </mxCell>
        <mxCell id="toCFi2T_oHbZBWo1tkQk-109" value="" style="endArrow=open;endFill=1;endSize=12;html=1;rounded=0;entryX=0.25;entryY=0;entryDx=0;entryDy=0;strokeWidth=5;exitX=0.43;exitY=1.107;exitDx=0;exitDy=0;exitPerimeter=0;" edge="1" parent="1" target="toCFi2T_oHbZBWo1tkQk-108" source="toCFi2T_oHbZBWo1tkQk-98">
          <mxGeometry width="160" relative="1" as="geometry">
            <mxPoint x="-280" y="540" as="sourcePoint" />
            <mxPoint x="-290" y="630" as="targetPoint" />
          </mxGeometry>
        </mxCell>
        <mxCell id="toCFi2T_oHbZBWo1tkQk-110" value="&lt;b&gt;&lt;font style=&quot;font-size: 24px;&quot;&gt;:Book&lt;/font&gt;&lt;/b&gt;" style="html=1;whiteSpace=wrap;strokeWidth=6;" vertex="1" parent="1">
          <mxGeometry x="72" y="540" width="110" height="50" as="geometry" />
        </mxCell>
        <mxCell id="toCFi2T_oHbZBWo1tkQk-111" value="" style="endArrow=open;endFill=1;endSize=12;html=1;rounded=0;strokeWidth=5;exitX=0.826;exitY=1.054;exitDx=0;exitDy=0;exitPerimeter=0;" edge="1" parent="1" target="toCFi2T_oHbZBWo1tkQk-110">
          <mxGeometry width="160" relative="1" as="geometry">
            <mxPoint x="126.07999999999993" y="478.24" as="sourcePoint" />
            <mxPoint x="186.5" y="540" as="targetPoint" />
          </mxGeometry>
        </mxCell>
        <mxCell id="toCFi2T_oHbZBWo1tkQk-112" value="&lt;b&gt;&lt;font style=&quot;font-size: 24px;&quot;&gt;:catalog&lt;/font&gt;&lt;/b&gt;" style="html=1;whiteSpace=wrap;strokeWidth=6;" vertex="1" parent="1">
          <mxGeometry x="1110" y="446" width="110" height="50" as="geometry" />
        </mxCell>
        <mxCell id="toCFi2T_oHbZBWo1tkQk-113" value="" style="endArrow=open;endFill=1;endSize=12;html=1;rounded=0;exitX=1;exitY=0.5;exitDx=0;exitDy=0;strokeWidth=5;" edge="1" parent="1" source="toCFi2T_oHbZBWo1tkQk-103">
          <mxGeometry width="160" relative="1" as="geometry">
            <mxPoint x="-487" y="471" as="sourcePoint" />
            <mxPoint x="1110" y="466" as="targetPoint" />
          </mxGeometry>
        </mxCell>
        <mxCell id="toCFi2T_oHbZBWo1tkQk-114" value="&lt;b&gt;&lt;font style=&quot;font-size: 24px;&quot;&gt;:Book&lt;/font&gt;&lt;/b&gt;" style="html=1;whiteSpace=wrap;strokeWidth=6;" vertex="1" parent="1">
          <mxGeometry x="490" y="563" width="110" height="50" as="geometry" />
        </mxCell>
        <mxCell id="toCFi2T_oHbZBWo1tkQk-115" value="" style="endArrow=open;endFill=1;endSize=12;html=1;rounded=0;strokeWidth=5;" edge="1" parent="1" target="toCFi2T_oHbZBWo1tkQk-114">
          <mxGeometry width="160" relative="1" as="geometry">
            <mxPoint x="540" y="500" as="sourcePoint" />
            <mxPoint x="517.5" y="579" as="targetPoint" />
          </mxGeometry>
        </mxCell>
        <mxCell id="toCFi2T_oHbZBWo1tkQk-116" value="" style="ellipse;html=1;shape=endState;fillColor=#000000;strokeColor=#ff0000;strokeWidth=1;" vertex="1" parent="1">
          <mxGeometry x="221" y="1029" width="75" height="85" as="geometry" />
        </mxCell>
        <mxCell id="toCFi2T_oHbZBWo1tkQk-117" value="" style="endArrow=open;endFill=1;endSize=12;html=1;rounded=0;entryX=0.097;entryY=-0.1;entryDx=0;entryDy=0;entryPerimeter=0;strokeWidth=7;" edge="1" parent="1" source="toCFi2T_oHbZBWo1tkQk-97" target="toCFi2T_oHbZBWo1tkQk-106">
          <mxGeometry width="160" relative="1" as="geometry">
            <mxPoint x="-550" y="610" as="sourcePoint" />
            <mxPoint x="-390" y="610" as="targetPoint" />
          </mxGeometry>
        </mxCell>
        <mxCell id="toCFi2T_oHbZBWo1tkQk-118" value="" style="endArrow=open;endFill=1;endSize=12;html=1;rounded=0;exitX=0.5;exitY=1;exitDx=0;exitDy=0;strokeWidth=5;entryX=0.352;entryY=0.514;entryDx=0;entryDy=0;entryPerimeter=0;" edge="1" parent="1" target="toCFi2T_oHbZBWo1tkQk-106">
          <mxGeometry width="160" relative="1" as="geometry">
            <mxPoint x="6.500000000000455" y="475" as="sourcePoint" />
            <mxPoint x="17" y="880" as="targetPoint" />
            <Array as="points" />
          </mxGeometry>
        </mxCell>
        <mxCell id="toCFi2T_oHbZBWo1tkQk-119" value="" style="endArrow=open;endFill=1;endSize=12;html=1;rounded=0;strokeWidth=7;" edge="1" parent="1">
          <mxGeometry width="160" relative="1" as="geometry">
            <mxPoint x="-240" y="580" as="sourcePoint" />
            <mxPoint x="-240" y="870" as="targetPoint" />
          </mxGeometry>
        </mxCell>
        <mxCell id="toCFi2T_oHbZBWo1tkQk-120" value="" style="endArrow=open;endFill=1;endSize=12;html=1;rounded=0;exitX=0.209;exitY=1.067;exitDx=0;exitDy=0;exitPerimeter=0;strokeWidth=6;" edge="1" parent="1" source="toCFi2T_oHbZBWo1tkQk-102">
          <mxGeometry width="160" relative="1" as="geometry">
            <mxPoint x="140" y="730" as="sourcePoint" />
            <mxPoint x="320" y="880" as="targetPoint" />
          </mxGeometry>
        </mxCell>
        <mxCell id="toCFi2T_oHbZBWo1tkQk-121" value="" style="endArrow=open;endFill=1;endSize=12;html=1;rounded=0;entryX=0.896;entryY=0.077;entryDx=0;entryDy=0;entryPerimeter=0;strokeWidth=7;" edge="1" parent="1" source="toCFi2T_oHbZBWo1tkQk-103" target="toCFi2T_oHbZBWo1tkQk-106">
          <mxGeometry width="160" relative="1" as="geometry">
            <mxPoint x="840" y="690" as="sourcePoint" />
            <mxPoint x="1000" y="690" as="targetPoint" />
          </mxGeometry>
        </mxCell>
      </root>
    </mxGraphModel>
  </diagram>
</mxfile>
